<svg width="109" height="31" viewBox="0 0 109 31" xmlns="http://www.w3.org/2000/svg">
    <g fill="none" fill-rule="evenodd">
        <path d="M61.552 28.48c0 1.269 1.175 2.221 2.359 1.764 5.804-2.243 9.927-7.94 9.927-14.613C73.838 6.998 66.937 0 58.424 0S43.009 6.998 43.009 15.631c0 6.86 4.357 12.687 10.418 14.792 1.176.409 2.309-.54 2.309-1.785v-1.103c0-.895-.604-1.664-1.428-2.015a10.354 10.354 0 0 1-4.314-3.408c-1.427-1.932-2.14-4.17-2.14-6.715 0-3.363 1.246-6.117 3.737-8.263 2.07-1.779 4.426-2.668 7.068-2.668 3.406 0 6.154 1.252 8.243 3.756 1.688 2.024 2.532 4.36 2.532 7.006 0 2.596-.748 4.922-2.245 6.976-1.069 1.476-2.472 2.582-4.211 3.318-.823.348-1.425 1.116-1.425 2.01v.948h-.001zm-.195-10.664a.733.733 0 0 0-.733-.733h-3.932a.746.746 0 0 0-.745.746c0 .634-.717.941-1.054.405-.503-.801-.755-1.737-.755-2.806 0-1.298.447-2.423 1.341-3.373.895-.95 1.954-1.426 3.18-1.426 1.216 0 2.27.475 3.165 1.426.894.95 1.341 2.075 1.341 3.373 0 1.046-.253 1.974-.759 2.784-.333.534-1.05.233-1.05-.396h.001z" fill="#14A6F4"/>
        <path d="M0 11.062a2 2 0 0 1 2-2h2.707a2 2 0 0 1 2 2v7.65c0 .42.092.752.276.996.184.237.41.356.677.356.273 0 .546-.128.82-.384.272-.248.424-.6.418-.968v-7.65a2 2 0 0 1 2-2h2.787a2 2 0 0 1 2 2v7.915c0 1.529-.383 2.854-1.15 3.975a7.217 7.217 0 0 1-2.992 2.54 9.088 9.088 0 0 1-3.883.86c-.963 0-1.92-.157-2.833-.466a7.605 7.605 0 0 1-2.476-1.408 6.719 6.719 0 0 1-1.719-2.33C.21 21.222 0 20.165 0 18.977v-7.916.001zm19.265 14.322a2 2 0 0 1-2-2V14.71c0-1.346.365-2.498 1.096-3.454.736-.963 1.707-1.688 2.912-2.175a10.123 10.123 0 0 1 3.83-.732c1.378 0 2.687.256 3.928.768 1.247.506 2.254 1.264 3.02 2.276.772 1.011 1.157 2.205 1.157 3.582v8.409a2 2 0 0 1-2 2h-3.045a2 2 0 0 1-2-2v-7.962c0-.366-.1-.637-.303-.813a.963.963 0 0 0-.677-.275c-.285 0-.558.11-.82.33-.26.212-.391.465-.391.758v7.96a2 2 0 0 1-2 2h-2.707v.002zm17.515 0a2 2 0 0 1-2-2V10.541a2 2 0 0 1 2-2h2.974a2 2 0 0 1 2 2v12.843a2 2 0 0 1-2 2H36.78zm38.278-14.322a2 2 0 0 1 2-2h2.707a2 2 0 0 1 2 2v7.65c0 .42.092.752.276.996.184.237.41.356.677.356.273 0 .547-.128.82-.384.279-.262.419-.585.419-.968v-7.65a2 2 0 0 1 2-2h2.787a2 2 0 0 1 2 2v7.915c0 1.529-.383 2.854-1.15 3.975a7.216 7.216 0 0 1-2.992 2.54 9.088 9.088 0 0 1-3.884.86c-.963 0-1.92-.157-2.832-.466a7.606 7.606 0 0 1-2.476-1.408 6.719 6.719 0 0 1-1.72-2.33c-.42-.926-.632-1.983-.632-3.171v-7.916.001zm33.544 2.065c.47.88.074 1.942-.795 2.429l-5.282 2.958a1.742 1.742 0 0 1-2.367-.662l-.037-.065a1.668 1.668 0 0 1 .646-2.283l.57-.314c.678-.373.728-1.288-.046-1.288-.735 0-1.47.337-2.204.987-.152.13-.836.65-1.039 1.196a1.475 1.475 0 0 0-.076.78c.025.234.709 2.131 1.292 2.807.608.702 1.292 1.04 2.103 1.04.862 0 1.779-.357 2.729-1.07.912-.684 2.206-.757 3.019.042l1.035 1.018c.681.67.806 1.747.131 2.423-.381.382-.804.739-1.264 1.07a11.73 11.73 0 0 1-3.066 1.534c-1.089.338-2.179.52-3.268.52a9.415 9.415 0 0 1-3.091-.52 7.696 7.696 0 0 1-2.686-1.586c-.81-.702-1.444-1.611-1.95-2.703a10.655 10.655 0 0 1-.913-3.77v-.441c0-1.898.431-3.535 1.267-4.887.836-1.352 1.926-2.392 3.218-3.067 1.317-.676 2.635-1.04 3.977-1.04 3.657 0 6.356 1.63 8.097 4.892z" fill="#FFF" fill-rule="nonzero"/>
    </g>
</svg>
