<svg width="24" height="24" viewBox="0 0 24 24" xmlns="http://www.w3.org/2000/svg">
    <g fill="none" fill-rule="evenodd">
        <g stroke-linecap="round" stroke-linejoin="round" stroke="#FFF" stroke-width="1.5">
            <path d="M15.794 13.016a1.75 1.75 0 1 1-2.474 2.474 1.75 1.75 0 0 1 2.474-2.474M21.197 8.513a1.75 1.75 0 1 1-2.474 2.474 1.75 1.75 0 0 1 2.474-2.474M4.987 13.91a1.75 1.75 0 1 1-2.474 2.474 1.75 1.75 0 0 1 2.474-2.474M10.391 9.408a1.75 1.75 0 1 1-2.474 2.474 1.75 1.75 0 0 1 2.474-2.474M18.625 10.867l-2.73 2.27M13.095 13.287l-2.49-1.67M5.095 14.037l2.72-2.27"/>
        </g>
        <path d="M0 0h24v24H0z"/>
    </g>
</svg>
